<svg width="46" height="20" viewBox="0 0 46 20" fill="none" xmlns="http://www.w3.org/2000/svg">
<rect width="46" height="20" rx="10" fill="#FFF7DA"/>
<path d="M13.3097 6.72727V14H12.429V7.65057H12.3864L10.6108 8.82955V7.93466L12.429 6.72727H13.3097ZM15.4013 14V13.3608L17.8018 10.733C18.0836 10.4252 18.3156 10.1577 18.4979 9.9304C18.6802 9.70076 18.8151 9.48532 18.9027 9.28409C18.9927 9.08049 19.0376 8.86742 19.0376 8.64489C19.0376 8.3892 18.9761 8.16785 18.853 7.98082C18.7322 7.7938 18.5665 7.64938 18.3558 7.54759C18.1451 7.44579 17.9084 7.39489 17.6456 7.39489C17.3662 7.39489 17.1224 7.45289 16.9141 7.56889C16.7081 7.68253 16.5483 7.84233 16.4347 8.0483C16.3234 8.25426 16.2678 8.49574 16.2678 8.77273H15.4297C15.4297 8.34659 15.5279 7.97254 15.7244 7.65057C15.9209 7.3286 16.1884 7.07765 16.527 6.89773C16.8679 6.7178 17.2502 6.62784 17.674 6.62784C18.1001 6.62784 18.4777 6.7178 18.8068 6.89773C19.1359 7.07765 19.3939 7.32031 19.581 7.62571C19.768 7.93111 19.8615 8.27083 19.8615 8.64489C19.8615 8.91241 19.813 9.17401 19.7159 9.42969C19.6212 9.683 19.4555 9.96591 19.2188 10.2784C18.9844 10.5885 18.6589 10.9673 18.2422 11.4148L16.6087 13.1619V13.2188H19.9893V14H15.4013ZM22.081 13.0696C21.9058 13.0696 21.7554 13.0069 21.63 12.8814C21.5045 12.7559 21.4418 12.6056 21.4418 12.4304C21.4418 12.2552 21.5045 12.1049 21.63 11.9794C21.7554 11.8539 21.9058 11.7912 22.081 11.7912C22.2562 11.7912 22.4065 11.8539 22.532 11.9794C22.6574 12.1049 22.7202 12.2552 22.7202 12.4304C22.7202 12.5464 22.6906 12.6529 22.6314 12.75C22.5746 12.8471 22.4976 12.9252 22.4006 12.9844C22.3059 13.0412 22.1993 13.0696 22.081 13.0696ZM22.081 9.39062C21.9058 9.39062 21.7554 9.32789 21.63 9.20241C21.5045 9.07694 21.4418 8.92661 21.4418 8.75142C21.4418 8.57623 21.5045 8.4259 21.63 8.30043C21.7554 8.17495 21.9058 8.11222 22.081 8.11222C22.2562 8.11222 22.4065 8.17495 22.532 8.30043C22.6574 8.4259 22.7202 8.57623 22.7202 8.75142C22.7202 8.86742 22.6906 8.97396 22.6314 9.07102C22.5746 9.16809 22.4976 9.24621 22.4006 9.3054C22.3059 9.36222 22.1993 9.39062 22.081 9.39062ZM26.582 14.0994C26.047 14.0994 25.5913 13.9538 25.2148 13.6626C24.8384 13.3691 24.5508 12.9441 24.3519 12.3878C24.1531 11.8291 24.0536 11.1544 24.0536 10.3636C24.0536 9.57765 24.1531 8.90649 24.3519 8.35014C24.5531 7.79143 24.842 7.36529 25.2184 7.07173C25.5972 6.7758 26.0517 6.62784 26.582 6.62784C27.1123 6.62784 27.5657 6.7758 27.9421 7.07173C28.3209 7.36529 28.6097 7.79143 28.8086 8.35014C29.0098 8.90649 29.1104 9.57765 29.1104 10.3636C29.1104 11.1544 29.011 11.8291 28.8121 12.3878C28.6133 12.9441 28.3256 13.3691 27.9492 13.6626C27.5728 13.9538 27.1171 14.0994 26.582 14.0994ZM26.582 13.3182C27.1123 13.3182 27.5243 13.0625 27.8178 12.5511C28.1114 12.0398 28.2582 11.3106 28.2582 10.3636C28.2582 9.7339 28.1907 9.19768 28.0558 8.75497C27.9232 8.31226 27.7314 7.97491 27.4805 7.7429C27.2319 7.51089 26.9324 7.39489 26.582 7.39489C26.0565 7.39489 25.6457 7.65412 25.3498 8.17259C25.0539 8.68868 24.9059 9.41903 24.9059 10.3636C24.9059 10.9934 24.9722 11.5284 25.1048 11.9688C25.2373 12.4091 25.4279 12.7441 25.6765 12.9737C25.9274 13.2034 26.2293 13.3182 26.582 13.3182ZM32.832 14.0994C32.297 14.0994 31.8413 13.9538 31.4648 13.6626C31.0884 13.3691 30.8008 12.9441 30.6019 12.3878C30.4031 11.8291 30.3036 11.1544 30.3036 10.3636C30.3036 9.57765 30.4031 8.90649 30.6019 8.35014C30.8031 7.79143 31.092 7.36529 31.4684 7.07173C31.8472 6.7758 32.3017 6.62784 32.832 6.62784C33.3623 6.62784 33.8157 6.7758 34.1921 7.07173C34.5709 7.36529 34.8597 7.79143 35.0586 8.35014C35.2598 8.90649 35.3604 9.57765 35.3604 10.3636C35.3604 11.1544 35.261 11.8291 35.0621 12.3878C34.8633 12.9441 34.5756 13.3691 34.1992 13.6626C33.8228 13.9538 33.3671 14.0994 32.832 14.0994ZM32.832 13.3182C33.3623 13.3182 33.7743 13.0625 34.0678 12.5511C34.3614 12.0398 34.5082 11.3106 34.5082 10.3636C34.5082 9.7339 34.4407 9.19768 34.3058 8.75497C34.1732 8.31226 33.9814 7.97491 33.7305 7.7429C33.4819 7.51089 33.1824 7.39489 32.832 7.39489C32.3065 7.39489 31.8957 7.65412 31.5998 8.17259C31.3039 8.68868 31.1559 9.41903 31.1559 10.3636C31.1559 10.9934 31.2222 11.5284 31.3548 11.9688C31.4873 12.4091 31.6779 12.7441 31.9265 12.9737C32.1774 13.2034 32.4793 13.3182 32.832 13.3182Z" fill="#2C2C2C"/>
</svg>
